# xmcd CD database file
#
# Track frame offsets:
#	150
#	2980
#	34413
#	65830
#	88070
#	105822
#	126927
#	147165
#	168184
#	191414
#	211267
#
# Disc length: 3188 seconds
#
# Revision: 0
# Processed by: cddbd v1.5PL3 Copyright (c) Steve Scherf et al.
# Submitted via: CDex 1.50beta8
#
DISCID=950c720b
DTITLE=TM NETWORK - Worldproof
DYEAR=1900
DGENRE=JPop
TTITLE0=Worldproof
TTITLE1=Get Wild Decade Run
TTITLE2=Ignition,Sequence,Start
TTITLE3=Pale Shelter
TTITLE4=We Are Starting Over
TTITLE5=80's
TTITLE6=It's Gonna Be alright
TTITLE7=Happiness x 3 Loneliness x 3
TTITLE8=Message
TTITLE9=Cube
TTITLE10=10 Years After
EXTD=
EXTT0=
EXTT1=
EXTT2=
EXTT3=
EXTT4=
EXTT5=
EXTT6=
EXTT7=
EXTT8=
EXTT9=
EXTT10=
PLAYORDER=
